<svg width="319" height="64" viewBox="0 0 319 64" fill="none" xmlns="http://www.w3.org/2000/svg">
<path d="M4.52414 8.95654L3.31068 3.27655L10.0493 12.8035L10.3849 42.7271C10.6947 44.2349 12.3902 44.4397 13.1991 44.3536H26.7796C28.7005 44.2503 30.2307 43.7254 30.7557 43.4758L33.4666 47.426H0.212467C3.49657 45.1746 4.45529 43.5102 4.52414 42.9594V8.95654Z" fill="white"/>
<path fill-rule="evenodd" clip-rule="evenodd" d="M53.1719 48.4143C61.3633 48.4143 68.0038 41.5861 68.0038 33.163C68.0038 24.7399 61.3633 17.9117 53.1719 17.9117C44.9805 17.9117 38.34 24.7399 38.34 33.163C38.34 41.5861 44.9805 48.4143 53.1719 48.4143ZM53.1719 45.5725C58.7326 45.5725 63.2404 39.9116 63.2404 32.9286C63.2404 25.9455 58.7326 20.2847 53.1719 20.2847C47.6112 20.2847 43.1034 25.9455 43.1034 32.9286C43.1034 39.9116 47.6112 45.5725 53.1719 45.5725Z" fill="white"/>
<path d="M80.7537 44.0707L77.3121 42.9019C80.143 46.983 85.5924 47.3827 87.9633 47.0724C91.7042 47.1154 94.4311 44.1699 95.327 42.6918C96.4449 40.9503 96.4378 38.4366 96.2944 37.3975C96.1009 35.3765 93.9563 33.5275 92.9082 32.8556L83.4483 27.6419C80.9973 26.8894 80.9579 24.6051 81.2446 23.5569C82.0831 21.106 85.2494 20.5649 86.7277 20.6007C89.8458 20.3212 92.7385 22.6701 93.7951 23.8794C93.6471 23.2938 93.0654 21.6679 91.9226 19.8497C90.7797 18.0315 86.3814 17.9666 84.3251 18.1614C81.4679 18.4212 78.9355 21.2134 78.0264 22.577C76.3121 25.4861 77.3121 28.3347 78.0264 29.3953C78.2861 30.694 83.9355 33.4862 86.7277 34.72C90.1563 36.2784 91.6195 38.01 91.9226 38.6811C92.3382 41.6421 90.6672 43.5079 89.7797 44.0707C88.0135 45.8889 83.0264 44.8283 80.7537 44.0707Z" fill="white"/>
<path fill-rule="evenodd" clip-rule="evenodd" d="M107.018 29.2886L106.979 29.2134C106.739 28.575 106.665 24.9847 106.659 23.1824C106.911 21.365 108.638 21.0606 109.47 21.1356H113.452C117.428 21.6151 118.468 23.4047 118.49 24.2396V27.6586C117.95 28.6842 117.463 30.3827 117.287 31.1038C117.267 31.2828 117.942 32.9852 118.282 33.814L120.395 63.3535L121.066 64V23.52C120.788 22.8238 119.575 21.2407 119.003 20.5362L101.175 18L106.979 29.2134C106.991 29.2468 107.004 29.2721 107.018 29.2886ZM138.161 29.2134L138.123 29.2886C138.136 29.2721 138.149 29.2468 138.161 29.2134ZM143.966 18L138.161 29.2134C138.401 28.575 138.475 24.9847 138.482 23.1824C138.23 21.365 136.502 21.0606 135.67 21.1356H131.689C127.712 21.6151 126.673 23.4047 126.65 24.2396V27.6586C127.19 28.6842 127.677 30.3827 127.853 31.1038C127.873 31.2828 127.199 32.9852 126.859 33.814L124.745 63.3535L124.074 64V23.52C124.352 22.8238 125.566 21.2407 126.138 20.5362L143.966 18Z" fill="white"/>
<path fill-rule="evenodd" clip-rule="evenodd" d="M140.873 47.9527L157.416 18.2509L157.469 18.1472H157.873V21.3349C158.311 23.0049 159.841 27.7245 162.455 33.2428L166.122 42.1011L166.667 43.3718L169.063 45.6952L168.554 46.1672H163.762C163.496 45.9857 162.934 45.55 162.818 45.2596L162.092 43.0087C161.657 41.7017 160.546 38.6885 159.587 37.0911H149.349L144.23 45.4411C143.831 45.9417 142.713 47.1448 141.435 47.9527H140.873ZM150.075 35.7841L155.158 26.4539L159.406 35.7841H150.075Z" fill="white"/>
<path fill-rule="evenodd" clip-rule="evenodd" d="M186.226 46.0993H178.68V45.8973H179.561L181.709 43.896V21.018L179.892 18.9432H191.845C194.384 18.9372 199.781 19.9721 201.053 24.1591C201.274 25.5504 201.345 28.7039 199.861 30.1879C199.397 30.8725 197.674 32.4007 194.494 33.0367C197.1 36.9729 203.239 45.0557 206.949 45.8973L199.861 46.0993L189.393 33.0367H186.226C186.054 36.3567 185.813 43.6172 186.226 46.0993ZM186.147 21.1116V31.4467H191.977C193.368 31.27 196.177 30.0554 196.283 26.6104C196.415 25.1087 195.74 21.9066 191.977 21.1116H186.147Z" fill="white"/>
<path d="M214.17 46.0903H223.54L223.54 26.1271H223.955L246.791 46.022H256.012C255.286 46.022 252.235 43.7122 250.8 42.5574L229.883 24.9774L236.53 18.3313C239.617 16.0159 247.33 5.60508 250.8 0.6891V0.342044L250.611 0.184265C250.156 0.663833 232.375 16.2855 223.54 24.0364V13.12L217.325 9.64945H216.915L216.568 9.83875L218.24 11.4794V43.0298L214.769 45.8379L214.17 46.0903Z" fill="white"/>
<path d="M277.174 18.1946H262.944L262.726 19.0001C264.988 19.0001 266.451 19.759 266.901 20.1385L266.379 44.3591L262.031 45.5332V46.2289H282.598L284.381 38.9671H283.555C283.381 40.1846 281.743 43.0691 280.946 44.3591C280.555 44.562 279.042 44.9766 276.119 45.0114C273.197 45.0462 271.365 44.591 270.814 44.3591L271.249 20.1385C272.745 19.408 275.822 19.0752 277.174 19.0001V18.1946Z" fill="white"/>
<path d="M301.652 18.1512H289.43V18.8951C290.875 19.1502 291.839 19.7099 292.14 19.9579L301.173 33.2955V44.4014C300.068 45.2091 296.922 45.4819 295.488 45.5173V46.1018H311.163V45.5173C308.57 45.5173 306.434 44.7734 305.69 44.4014V33.2955L315.627 19.9579C316.477 19.4052 318.213 19.0191 318.975 18.8951V18.1512H308.241V18.8951C309.686 18.8951 311.783 19.6036 312.651 19.9579L304.84 31.542L297.241 19.9579C298.474 19.3202 300.695 18.9837 301.652 18.8951V18.1512Z" fill="white"/>
</svg>
