<?xml version="1.0" standalone="no"?>
<!DOCTYPE svg PUBLIC "-//W3C//DTD SVG 20010904//EN"
 "http://www.w3.org/TR/2001/REC-SVG-20010904/DTD/svg10.dtd">
<svg version="1.0" xmlns="http://www.w3.org/2000/svg"
 width="700.000000pt" height="700.000000pt" viewBox="0 0 700.000000 700.000000"
 preserveAspectRatio="xMidYMid meet">
<metadata>
Created by potrace 1.14, written by Peter Selinger 2001-2017
</metadata>
<g transform="translate(0.000000,700.000000) scale(0.100000,-0.100000)"
fill="#000000" stroke="none">
<path d="M1525 6984 c-379 -51 -707 -207 -982 -468 -303 -286 -491 -671 -533
-1091 -8 -78 -10 -665 -8 -1995 l3 -1885 23 -113 c137 -684 631 -1211 1292
-1377 222 -56 174 -55 2178 -55 1170 0 1880 4 1937 10 134 15 236 38 369 81
648 212 1113 793 1186 1481 14 130 13 3743 0 3863 -95 828 -730 1464 -1552
1554 -156 17 -3783 13 -3913 -5z m559 -1006 l1010 -143 89 -119 c48 -65 101
-142 118 -170 l29 -51 0 -2310 0 -2310 -39 40 -39 40 -121 1685 -120 1685 -57
144 c-46 118 -55 150 -49 180 11 57 75 250 106 320 29 63 29 66 29 251 0 240
-8 271 -94 355 -74 72 -176 126 -315 163 -91 24 -112 26 -393 30 -257 3 -305
1 -355 -13 -71 -21 -123 -57 -158 -110 -46 -71 -48 -96 -36 -410 7 -159 15
-306 18 -325 3 -19 3 -33 0 -30 -12 11 -644 1240 -638 1240 3 0 460 -64 1015
-142z m3534 -475 c-175 -340 -322 -620 -325 -623 -3 -3 -3 11 0 30 3 19 11
166 17 325 13 314 11 339 -35 410 -35 53 -87 89 -158 110 -50 14 -98 16 -355
13 -283 -4 -302 -6 -396 -31 -138 -37 -237 -89 -312 -162 -86 -84 -94 -115
-94 -355 0 -185 0 -188 29 -251 31 -70 95 -263 106 -320 6 -30 -3 -62 -49
-180 l-57 -144 -120 -1685 -121 -1685 -39 -40 -39 -40 0 2309 0 2308 26 48
c14 26 67 103 117 170 l92 123 990 143 c545 78 1002 142 1016 143 25 1 12 -28
-293 -616z"/>
</g>
</svg>
